# xmcd
# Copyright (C) 1995-1998 Ti Kan
#
# Track frame offsets:
#       150
#       12229
#       28450
#
# Disc length: 528 seconds
#
# Revision: 0
# Processed by: cddbd v1.5.2PL0 Copyright (c) Steve Scherf et al.
# Submitted via: CD-Import v1.0
#
DISCID=1f020e03
DTITLE=Homestories - Single
DYEAR=1900
DGENRE=
TTITLE0=Firemen
TTITLE1=Loud And Clear
TTITLE2=Thank You Goodbye
EXTD=
EXTT0=
EXTT1=
EXTT2=
PLAYORDER=
